<svg width="1080" height="1080" viewBox="0 0 1080 1080" fill="none" xmlns="http://www.w3.org/2000/svg">
<path d="M296.097 197.756C287.641 167.767 310.175 138 341.333 138H738.667C769.825 138 792.359 167.767 783.903 197.756L706.357 472.756C700.646 493.011 682.166 507 661.121 507H418.879C397.834 507 379.354 493.011 373.643 472.756L296.097 197.756Z" stroke="#FF00E6" stroke-width="14"/>
<path d="M783.903 895.244C792.359 925.233 769.825 955 738.667 955L341.333 955C310.175 955 287.641 925.233 296.097 895.244L373.643 620.244C379.354 599.989 397.834 586 418.879 586H661.121C682.166 586 700.646 599.989 706.357 620.244L783.903 895.244Z" stroke="#FF00E6" stroke-width="14"/>
</svg>
